<svg xmlns="http://www.w3.org/2000/svg" xmlns:xlink="http://www.w3.org/1999/xlink" width="1080" zoomAndPan="magnify" viewBox="0 0 810 809.999993" height="1080" preserveAspectRatio="xMidYMid meet" version="1.0"><defs><clipPath id="26f19efafd"><path d="M 292.988281 368.632812 L 354.546875 368.632812 L 354.546875 440.425781 L 292.988281 440.425781 Z M 292.988281 368.632812 " clip-rule="nonzero"/></clipPath><clipPath id="0f425c4aa8"><path d="M 323.839844 368.632812 L 354.683594 386.582031 L 354.683594 422.480469 L 323.839844 440.425781 L 292.988281 422.480469 L 292.988281 386.582031 Z M 323.839844 368.632812 " clip-rule="nonzero"/></clipPath></defs><g clip-path="url(#26f19efafd)"><g clip-path="url(#0f425c4aa8)"><path stroke-linecap="butt" transform="matrix(0.648, 0, 0, 0.648, 292.986697, 368.632501)" fill="none" stroke-linejoin="miter" d="M 47.612887 0.000480008 L 95.217301 27.699895 L 95.217301 83.098725 L 47.612887 110.792112 L 0.0024452 83.098725 L 0.0024452 27.699895 Z M 47.612887 0.000480008 " stroke="#4ccd99" stroke-width="26" stroke-opacity="1" stroke-miterlimit="4"/></g></g><path fill="#4ccd99" d="M 325.882812 419.449219 C 322.648438 419.449219 319.746094 418.785156 317.164062 417.453125 C 314.585938 416.125 312.574219 414.273438 311.128906 411.90625 C 309.6875 409.527344 308.96875 406.839844 308.96875 403.832031 C 308.96875 400.828125 309.6875 398.140625 311.128906 395.773438 C 312.574219 393.394531 314.585938 391.542969 317.164062 390.210938 C 319.746094 388.878906 322.648438 388.210938 325.882812 388.210938 C 329.074219 388.210938 331.867188 388.878906 334.253906 390.210938 C 336.644531 391.542969 338.386719 393.449219 339.476562 395.933594 L 332.648438 399.605469 C 331.070312 396.824219 328.800781 395.433594 325.828125 395.433594 C 323.535156 395.433594 321.632812 396.1875 320.132812 397.6875 C 318.628906 399.195312 317.878906 401.238281 317.878906 403.832031 C 317.878906 406.421875 318.628906 408.476562 320.132812 409.988281 C 321.632812 411.492188 323.535156 412.242188 325.828125 412.242188 C 328.832031 412.242188 331.109375 410.847656 332.648438 408.058594 L 339.476562 411.78125 C 338.386719 414.195312 336.644531 416.074219 334.253906 417.425781 C 331.867188 418.777344 329.074219 419.449219 325.882812 419.449219 Z M 325.882812 419.449219 " fill-opacity="1" fill-rule="nonzero"/><path fill="#4ccd99" d="M 375.320312 419.449219 C 372.085938 419.449219 369.179688 418.785156 366.601562 417.453125 C 364.023438 416.125 362.011719 414.273438 360.566406 411.90625 C 359.125 409.527344 358.40625 406.839844 358.40625 403.832031 C 358.40625 400.828125 359.125 398.140625 360.566406 395.773438 C 362.011719 393.394531 364.023438 391.542969 366.601562 390.210938 C 369.179688 388.878906 372.085938 388.210938 375.320312 388.210938 C 378.511719 388.210938 381.304688 388.878906 383.691406 390.210938 C 386.082031 391.542969 387.824219 393.449219 388.914062 395.933594 L 382.085938 399.605469 C 380.507812 396.824219 378.238281 395.433594 375.265625 395.433594 C 372.972656 395.433594 371.070312 396.1875 369.570312 397.6875 C 368.0625 399.195312 367.316406 401.238281 367.316406 403.832031 C 367.316406 406.421875 368.0625 408.476562 369.570312 409.988281 C 371.070312 411.492188 372.972656 412.242188 375.265625 412.242188 C 378.269531 412.242188 380.546875 410.847656 382.085938 408.058594 L 388.914062 411.78125 C 387.824219 414.195312 386.082031 416.074219 383.691406 417.425781 C 381.304688 418.777344 378.511719 419.449219 375.320312 419.449219 Z M 375.320312 419.449219 " fill-opacity="1" fill-rule="nonzero"/><path fill="#4ccd99" d="M 406.171875 419.449219 C 402.972656 419.449219 400.109375 418.785156 397.570312 417.453125 C 395.03125 416.125 393.046875 414.273438 391.617188 411.90625 C 390.191406 409.527344 389.484375 406.839844 389.484375 403.832031 C 389.484375 400.828125 390.191406 398.140625 391.617188 395.773438 C 393.046875 393.394531 395.03125 391.542969 397.570312 390.210938 C 400.109375 388.878906 402.972656 388.210938 406.171875 388.210938 C 409.371094 388.210938 412.230469 388.878906 414.742188 390.210938 C 417.261719 391.542969 419.238281 393.394531 420.667969 395.773438 C 422.101562 398.140625 422.816406 400.828125 422.816406 403.832031 C 422.816406 406.839844 422.101562 409.527344 420.667969 411.90625 C 419.238281 414.273438 417.261719 416.125 414.742188 417.453125 C 412.230469 418.785156 409.371094 419.449219 406.171875 419.449219 Z M 406.171875 412.242188 C 408.429688 412.242188 410.28125 411.484375 411.730469 409.960938 C 413.179688 408.429688 413.90625 406.390625 413.90625 403.832031 C 413.90625 401.277344 413.179688 399.238281 411.730469 397.714844 C 410.28125 396.195312 408.429688 395.433594 406.171875 395.433594 C 403.917969 395.433594 402.058594 396.195312 400.59375 397.714844 C 399.125 399.238281 398.394531 401.277344 398.394531 403.832031 C 398.394531 406.390625 399.125 408.429688 400.59375 409.960938 C 402.058594 411.484375 403.917969 412.242188 406.171875 412.242188 Z M 406.171875 412.242188 " fill-opacity="1" fill-rule="nonzero"/><path fill="#4ccd99" d="M 434.824219 392.667969 C 435.878906 391.203125 437.296875 390.09375 439.078125 389.347656 C 440.867188 388.589844 442.929688 388.210938 445.261719 388.210938 L 445.261719 396.324219 C 444.289062 396.253906 443.628906 396.21875 443.289062 396.21875 C 440.769531 396.21875 438.792969 396.925781 437.363281 398.335938 C 435.9375 399.742188 435.230469 401.855469 435.230469 404.683594 L 435.230469 419.003906 L 426.429688 419.003906 L 426.429688 388.65625 L 434.824219 388.65625 Z M 434.824219 392.667969 " fill-opacity="1" fill-rule="nonzero"/><path fill="#4ccd99" d="M 466.921875 388.210938 C 470.683594 388.210938 473.722656 389.34375 476.035156 391.601562 C 478.347656 393.851562 479.503906 397.195312 479.503906 401.632812 L 479.503906 419.003906 L 470.703125 419.003906 L 470.703125 402.980469 C 470.703125 400.578125 470.175781 398.789062 469.125 397.609375 C 468.070312 396.421875 466.550781 395.824219 464.5625 395.824219 C 462.335938 395.824219 460.570312 396.515625 459.253906 397.890625 C 457.9375 399.261719 457.285156 401.300781 457.285156 404.007812 L 457.285156 419.003906 L 448.484375 419.003906 L 448.484375 388.65625 L 456.878906 388.65625 L 456.878906 392.207031 C 458.046875 390.933594 459.5 389.945312 461.226562 389.25 C 462.953125 388.558594 464.851562 388.210938 466.921875 388.210938 Z M 466.921875 388.210938 " fill-opacity="1" fill-rule="nonzero"/><path fill="#4ccd99" d="M 515.320312 388.65625 L 501.621094 420.867188 C 500.222656 424.359375 498.5 426.820312 496.449219 428.253906 C 494.402344 429.683594 491.933594 430.398438 489.039062 430.398438 C 487.453125 430.398438 485.890625 430.148438 484.351562 429.65625 C 482.8125 429.171875 481.550781 428.496094 480.574219 427.632812 L 483.785156 421.367188 C 484.46875 421.96875 485.25 422.441406 486.136719 422.785156 C 487.015625 423.125 487.890625 423.296875 488.753906 423.296875 C 489.957031 423.296875 490.933594 423.003906 491.683594 422.421875 C 492.441406 421.832031 493.117188 420.867188 493.722656 419.519531 L 493.828125 419.234375 L 480.695312 388.65625 L 489.765625 388.65625 L 498.285156 409.246094 L 506.859375 388.65625 Z M 515.320312 388.65625 " fill-opacity="1" fill-rule="nonzero"/></svg>