<svg xmlns="http://www.w3.org/2000/svg" xmlns:xlink="http://www.w3.org/1999/xlink" width="500" zoomAndPan="magnify" viewBox="0 0 375 374.999991" height="500" preserveAspectRatio="xMidYMid meet" version="1.0"><defs><clipPath id="084b755b43"><path d="M 140.632812 74.207031 L 234.382812 74.207031 L 234.382812 200.207031 L 140.632812 200.207031 Z M 140.632812 74.207031 " clip-rule="nonzero"/></clipPath><clipPath id="d4ac97de36"><path d="M 225.859375 171.757812 L 214.351562 165.105469 C 213.195312 166.261719 211.632812 166.957031 209.84375 166.957031 C 208.109375 166.957031 206.546875 166.261719 205.390625 165.105469 L 199.722656 168.402344 L 190.300781 173.78125 L 190.300781 173.835938 C 189.433594 174.359375 188.449219 174.589844 187.464844 174.589844 C 186.539062 174.589844 185.558594 174.359375 184.632812 173.835938 L 184.632812 173.78125 L 175.265625 168.402344 L 169.597656 165.105469 C 168.441406 166.261719 166.882812 166.957031 165.089844 166.957031 C 163.355469 166.957031 161.792969 166.261719 160.636719 165.105469 L 149.132812 171.757812 C 148.898438 171.871094 148.726562 172.046875 148.609375 172.277344 C 148.496094 172.449219 148.4375 172.738281 148.4375 173.027344 C 148.4375 173.316406 148.496094 173.546875 148.609375 173.78125 C 148.726562 173.953125 148.898438 174.125 149.132812 174.300781 L 186.773438 195.984375 C 187.003906 196.15625 187.234375 196.214844 187.464844 196.214844 C 187.753906 196.214844 187.984375 196.15625 188.21875 195.984375 L 225.859375 174.300781 C 226.089844 174.125 226.261719 173.953125 226.378906 173.78125 C 226.496094 173.546875 226.550781 173.316406 226.550781 173.027344 C 226.550781 172.738281 226.496094 172.449219 226.378906 172.277344 C 226.261719 172.101562 226.089844 171.871094 225.859375 171.757812 Z M 167.230469 154.640625 C 169.714844 155.507812 171.449219 157.878906 171.449219 160.65625 C 171.449219 160.886719 171.449219 161.117188 171.390625 161.289062 L 177.347656 164.761719 L 186.773438 170.195312 C 187.003906 170.3125 187.234375 170.367188 187.464844 170.367188 C 187.753906 170.367188 187.984375 170.3125 188.21875 170.195312 L 197.640625 164.761719 L 203.539062 161.289062 C 203.539062 161.117188 203.539062 160.886719 203.539062 160.65625 C 203.539062 157.878906 205.273438 155.507812 207.761719 154.640625 L 207.761719 114.515625 C 207.761719 114.226562 207.703125 113.992188 207.585938 113.820312 C 207.472656 113.589844 207.242188 113.414062 207.007812 113.300781 L 191.859375 104.511719 C 191.222656 105.089844 190.414062 105.550781 189.605469 105.898438 L 189.605469 119.3125 C 189.605469 120.296875 189.316406 121.277344 188.855469 122.148438 C 188.332031 122.957031 187.640625 123.707031 186.773438 124.226562 L 167.921875 135.039062 C 167.691406 135.214844 167.519531 135.386719 167.402344 135.617188 C 167.285156 135.792969 167.230469 136.023438 167.230469 136.3125 Z M 158.785156 161.289062 C 158.785156 161.117188 158.785156 160.886719 158.785156 160.65625 C 158.785156 157.878906 160.523438 155.507812 163.007812 154.640625 L 163.007812 136.3125 C 163.007812 135.273438 163.238281 134.347656 163.757812 133.480469 C 164.222656 132.613281 164.972656 131.917969 165.839844 131.398438 L 184.632812 120.585938 L 184.632812 120.527344 C 184.863281 120.410156 185.09375 120.238281 185.210938 120.007812 C 185.328125 119.832031 185.382812 119.601562 185.382812 119.3125 L 185.382812 105.898438 C 183.417969 105.207031 181.855469 103.527344 181.335938 101.503906 L 166.1875 110.234375 L 145.605469 122.148438 C 145.316406 122.261719 145.140625 122.492188 145.027344 122.667969 C 144.910156 122.898438 144.851562 123.128906 144.851562 123.417969 L 144.851562 166.839844 C 144.851562 167.128906 144.910156 167.363281 145.027344 167.59375 C 145.140625 167.765625 145.316406 167.996094 145.605469 168.113281 L 145.546875 168.113281 C 145.777344 168.230469 146.066406 168.285156 146.296875 168.285156 C 146.527344 168.285156 146.761719 168.230469 146.992188 168.113281 L 147.050781 168.113281 Z M 189.605469 93.929688 C 192.035156 94.796875 193.824219 97.109375 193.824219 99.886719 C 193.824219 100.175781 193.824219 100.464844 193.769531 100.753906 L 209.148438 109.65625 C 210.015625 110.121094 210.710938 110.871094 211.230469 111.679688 C 211.691406 112.546875 211.980469 113.53125 211.980469 114.515625 L 211.980469 154.640625 C 214.410156 155.507812 216.203125 157.878906 216.203125 160.65625 C 216.203125 160.886719 216.203125 161.117188 216.144531 161.289062 L 227.941406 168.113281 C 228.171875 168.230469 228.402344 168.285156 228.691406 168.285156 C 228.921875 168.285156 229.152344 168.230469 229.386719 168.113281 C 229.617188 167.996094 229.847656 167.765625 229.964844 167.59375 C 230.078125 167.363281 230.136719 167.128906 230.136719 166.839844 L 230.136719 101.621094 C 230.136719 101.332031 230.078125 101.101562 229.964844 100.867188 C 229.847656 100.695312 229.617188 100.523438 229.386719 100.347656 L 208.800781 88.496094 L 191.746094 78.609375 C 191.511719 78.492188 191.28125 78.433594 191.050781 78.433594 C 190.820312 78.433594 190.53125 78.492188 190.300781 78.609375 C 190.066406 78.78125 189.894531 78.953125 189.777344 79.128906 C 189.664062 79.359375 189.605469 79.589844 189.605469 79.878906 Z M 182.320312 96.242188 C 183.070312 95.203125 184.113281 94.335938 185.382812 93.929688 L 185.382812 79.878906 C 185.382812 78.898438 185.617188 77.914062 186.136719 77.046875 C 186.597656 76.238281 187.351562 75.484375 188.21875 74.964844 C 189.144531 74.445312 190.066406 74.214844 191.050781 74.214844 C 192.035156 74.214844 192.957031 74.445312 193.882812 74.964844 L 210.941406 84.851562 L 210.882812 84.851562 L 231.523438 96.707031 C 232.390625 97.226562 233.085938 97.917969 233.605469 98.789062 C 234.070312 99.65625 234.359375 100.578125 234.359375 101.621094 L 234.359375 166.839844 C 234.359375 167.882812 234.070312 168.867188 233.605469 169.675781 C 233.085938 170.542969 232.390625 171.234375 231.523438 171.757812 C 231.234375 171.929688 231.003906 172.046875 230.714844 172.160156 C 230.773438 172.449219 230.773438 172.738281 230.773438 173.027344 C 230.773438 174.011719 230.542969 174.996094 230.023438 175.863281 C 229.558594 176.671875 228.808594 177.421875 227.941406 177.941406 L 190.300781 199.625 C 189.433594 200.144531 188.449219 200.433594 187.464844 200.433594 C 186.539062 200.433594 185.558594 200.144531 184.632812 199.625 L 147.050781 177.941406 C 146.125 177.421875 145.429688 176.671875 144.96875 175.863281 C 144.449219 174.996094 144.214844 174.011719 144.214844 173.027344 C 144.214844 172.738281 144.214844 172.449219 144.273438 172.160156 C 143.984375 172.046875 143.753906 171.929688 143.464844 171.757812 C 142.597656 171.234375 141.902344 170.542969 141.382812 169.675781 C 140.921875 168.867188 140.632812 167.882812 140.632812 166.839844 L 140.632812 123.417969 C 140.632812 122.378906 140.921875 121.394531 141.382812 120.585938 C 141.847656 119.71875 142.597656 119.023438 143.464844 118.503906 L 164.046875 106.59375 L 181.105469 96.761719 C 181.511719 96.53125 181.914062 96.359375 182.320312 96.242188 Z M 182.320312 96.242188 " clip-rule="nonzero"/></clipPath></defs><rect x="-37.5" width="450" fill="#ffffff" y="-37.499999" height="449.999989" fill-opacity="1"/><rect x="-37.5" width="450" fill="#ffffff" y="-37.499999" height="449.999989" fill-opacity="1"/><g clip-path="url(#084b755b43)"><g clip-path="url(#d4ac97de36)"><path fill="#4ccd99" d="M 140.632812 74.214844 L 140.632812 200.207031 L 234.359375 200.207031 L 234.359375 74.214844 Z M 140.632812 74.214844 " fill-opacity="1" fill-rule="nonzero"/></g></g></svg>