<svg xmlns="http://www.w3.org/2000/svg" xmlns:xlink="http://www.w3.org/1999/xlink" width="500" zoomAndPan="magnify" viewBox="0 0 375 374.999991" height="500" preserveAspectRatio="xMidYMid meet" version="1.0"><defs><g/><clipPath id="86e55e97cd"><path d="M 57.855469 145.40625 L 129.105469 145.40625 L 129.105469 228.503906 L 57.855469 228.503906 Z M 57.855469 145.40625 " clip-rule="nonzero"/></clipPath><clipPath id="942012025e"><path d="M 93.5625 145.40625 L 129.265625 166.183594 L 129.265625 207.730469 L 93.5625 228.503906 L 57.855469 207.730469 L 57.855469 166.183594 Z M 93.5625 145.40625 " clip-rule="nonzero"/></clipPath></defs><g clip-path="url(#86e55e97cd)"><g clip-path="url(#942012025e)"><path stroke-linecap="butt" transform="matrix(0.75, 0, 0, 0.75, 57.854535, 145.407763)" fill="none" stroke-linejoin="miter" d="M 47.610623 -0.00201767 L 95.214793 27.701109 L 95.214793 83.096946 L 47.610623 110.794865 L 0.00124487 83.096946 L 0.00124487 27.701109 Z M 47.610623 -0.00201767 " stroke="#4ccd99" stroke-width="26" stroke-opacity="1" stroke-miterlimit="4"/></g></g><g fill="#4ccd99" fill-opacity="1"><g transform="translate(74.258078, 203.709771)"><g><path d="M 21.671875 0.515625 C 17.929688 0.515625 14.566406 -0.253906 11.578125 -1.796875 C 8.597656 -3.335938 6.269531 -5.476562 4.59375 -8.21875 C 2.925781 -10.96875 2.09375 -14.082031 2.09375 -17.5625 C 2.09375 -21.039062 2.925781 -24.148438 4.59375 -26.890625 C 6.269531 -29.640625 8.597656 -31.785156 11.578125 -33.328125 C 14.566406 -34.867188 17.929688 -35.640625 21.671875 -35.640625 C 25.367188 -35.640625 28.597656 -34.867188 31.359375 -33.328125 C 34.128906 -31.785156 36.144531 -29.578125 37.40625 -26.703125 L 29.5 -22.453125 C 27.675781 -25.671875 25.046875 -27.28125 21.609375 -27.28125 C 18.953125 -27.28125 16.753906 -26.410156 15.015625 -24.671875 C 13.273438 -22.929688 12.40625 -20.5625 12.40625 -17.5625 C 12.40625 -14.5625 13.273438 -12.1875 15.015625 -10.4375 C 16.753906 -8.695312 18.953125 -7.828125 21.609375 -7.828125 C 25.085938 -7.828125 27.71875 -9.441406 29.5 -12.671875 L 37.40625 -8.359375 C 36.144531 -5.566406 34.128906 -3.390625 31.359375 -1.828125 C 28.597656 -0.265625 25.367188 0.515625 21.671875 0.515625 Z M 21.671875 0.515625 "/></g></g></g><g fill="#4ccd99" fill-opacity="1"><g transform="translate(131.476534, 203.709771)"><g><path d="M 21.671875 0.515625 C 17.929688 0.515625 14.566406 -0.253906 11.578125 -1.796875 C 8.597656 -3.335938 6.269531 -5.476562 4.59375 -8.21875 C 2.925781 -10.96875 2.09375 -14.082031 2.09375 -17.5625 C 2.09375 -21.039062 2.925781 -24.148438 4.59375 -26.890625 C 6.269531 -29.640625 8.597656 -31.785156 11.578125 -33.328125 C 14.566406 -34.867188 17.929688 -35.640625 21.671875 -35.640625 C 25.367188 -35.640625 28.597656 -34.867188 31.359375 -33.328125 C 34.128906 -31.785156 36.144531 -29.578125 37.40625 -26.703125 L 29.5 -22.453125 C 27.675781 -25.671875 25.046875 -27.28125 21.609375 -27.28125 C 18.953125 -27.28125 16.753906 -26.410156 15.015625 -24.671875 C 13.273438 -22.929688 12.40625 -20.5625 12.40625 -17.5625 C 12.40625 -14.5625 13.273438 -12.1875 15.015625 -10.4375 C 16.753906 -8.695312 18.953125 -7.828125 21.609375 -7.828125 C 25.085938 -7.828125 27.71875 -9.441406 29.5 -12.671875 L 37.40625 -8.359375 C 36.144531 -5.566406 34.128906 -3.390625 31.359375 -1.828125 C 28.597656 -0.265625 25.367188 0.515625 21.671875 0.515625 Z M 21.671875 0.515625 "/></g></g></g><g fill="#4ccd99" fill-opacity="1"><g transform="translate(167.448297, 203.709771)"><g><path d="M 21.40625 0.515625 C 17.707031 0.515625 14.390625 -0.253906 11.453125 -1.796875 C 8.515625 -3.335938 6.21875 -5.476562 4.5625 -8.21875 C 2.914062 -10.96875 2.09375 -14.082031 2.09375 -17.5625 C 2.09375 -21.039062 2.914062 -24.148438 4.5625 -26.890625 C 6.21875 -29.640625 8.515625 -31.785156 11.453125 -33.328125 C 14.390625 -34.867188 17.707031 -35.640625 21.40625 -35.640625 C 25.113281 -35.640625 28.421875 -34.867188 31.328125 -33.328125 C 34.242188 -31.785156 36.53125 -29.640625 38.1875 -26.890625 C 39.84375 -24.148438 40.671875 -21.039062 40.671875 -17.5625 C 40.671875 -14.082031 39.84375 -10.96875 38.1875 -8.21875 C 36.53125 -5.476562 34.242188 -3.335938 31.328125 -1.796875 C 28.421875 -0.253906 25.113281 0.515625 21.40625 0.515625 Z M 21.40625 -7.828125 C 24.019531 -7.828125 26.164062 -8.707031 27.84375 -10.46875 C 29.519531 -12.238281 30.359375 -14.601562 30.359375 -17.5625 C 30.359375 -20.519531 29.519531 -22.878906 27.84375 -24.640625 C 26.164062 -26.398438 24.019531 -27.28125 21.40625 -27.28125 C 18.800781 -27.28125 16.648438 -26.398438 14.953125 -24.640625 C 13.253906 -22.878906 12.40625 -20.519531 12.40625 -17.5625 C 12.40625 -14.601562 13.253906 -12.238281 14.953125 -10.46875 C 16.648438 -8.707031 18.800781 -7.828125 21.40625 -7.828125 Z M 21.40625 -7.828125 "/></g></g></g><g fill="#4ccd99" fill-opacity="1"><g transform="translate(207.598308, 203.709771)"><g><path d="M 14.421875 -30.484375 C 15.640625 -32.179688 17.28125 -33.460938 19.34375 -34.328125 C 21.414062 -35.203125 23.800781 -35.640625 26.5 -35.640625 L 26.5 -26.25 C 25.375 -26.332031 24.613281 -26.375 24.21875 -26.375 C 21.300781 -26.375 19.015625 -25.554688 17.359375 -23.921875 C 15.710938 -22.296875 14.890625 -19.847656 14.890625 -16.578125 L 14.890625 0 L 4.703125 0 L 4.703125 -35.125 L 14.421875 -35.125 Z M 14.421875 -30.484375 "/></g></g></g><g fill="#4ccd99" fill-opacity="1"><g transform="translate(233.124439, 203.709771)"><g><path d="M 26.046875 -35.640625 C 30.398438 -35.640625 33.914062 -34.332031 36.59375 -31.71875 C 39.269531 -29.113281 40.609375 -25.242188 40.609375 -20.109375 L 40.609375 0 L 30.421875 0 L 30.421875 -18.546875 C 30.421875 -21.328125 29.8125 -23.398438 28.59375 -24.765625 C 27.375 -26.140625 25.613281 -26.828125 23.3125 -26.828125 C 20.738281 -26.828125 18.691406 -26.03125 17.171875 -24.4375 C 15.648438 -22.851562 14.890625 -20.492188 14.890625 -17.359375 L 14.890625 0 L 4.703125 0 L 4.703125 -35.125 L 14.421875 -35.125 L 14.421875 -31.015625 C 15.773438 -32.492188 17.453125 -33.632812 19.453125 -34.4375 C 21.453125 -35.238281 23.648438 -35.640625 26.046875 -35.640625 Z M 26.046875 -35.640625 "/></g></g></g><g fill="#4ccd99" fill-opacity="1"><g transform="translate(275.624714, 203.709771)"><g><path d="M 39.5625 -35.125 L 23.703125 2.15625 C 22.085938 6.195312 20.09375 9.046875 17.71875 10.703125 C 15.351562 12.359375 12.492188 13.1875 9.140625 13.1875 C 7.304688 13.1875 5.5 12.898438 3.71875 12.328125 C 1.9375 11.765625 0.476562 10.984375 -0.65625 9.984375 L 3.0625 2.734375 C 3.851562 3.429688 4.757812 3.976562 5.78125 4.375 C 6.800781 4.769531 7.8125 4.96875 8.8125 4.96875 C 10.207031 4.96875 11.335938 4.628906 12.203125 3.953125 C 13.078125 3.273438 13.863281 2.15625 14.5625 0.59375 L 14.6875 0.265625 L -0.515625 -35.125 L 9.984375 -35.125 L 19.84375 -11.296875 L 29.765625 -35.125 Z M 39.5625 -35.125 "/></g></g></g></svg>